<svg xmlns="http://www.w3.org/2000/svg" width="30" height="30" fill="none" viewBox="0 0 30 30">
    <g fill="#E2AB3F" clip-path="url(#clip0)">
        <path d="M26.338 3.585H3.668C1.646 3.585 0 5.23 0 7.253v15.494c0 2.024 1.645 3.669 3.669 3.669H26.33c2.024 0 3.669-1.645 3.669-3.669V7.26c.006-2.024-1.639-3.675-3.662-3.675zm1.992 19.162c0 1.099-.894 1.992-1.992 1.992H3.668c-1.098 0-1.992-.893-1.992-1.992V7.26c0-1.099.894-1.993 1.993-1.993H26.33c1.1 0 1.993.894 1.993 1.993v15.487h.006z"/>
        <path d="M18.92 14.808l7.337-6.58c.342-.31.373-.838.062-1.185-.31-.342-.838-.373-1.185-.063l-10.118 9.082-1.974-1.763c-.006-.006-.013-.012-.013-.019-.043-.043-.086-.08-.136-.118L4.86 6.974c-.348-.31-.876-.28-1.186.069-.31.347-.28.875.068 1.185l7.424 6.636-7.393 6.92c-.335.318-.354.845-.037 1.187.168.173.391.267.615.267.204 0 .41-.075.57-.224l7.505-7.02 2.036 1.818c.162.143.36.211.559.211.199 0 .403-.074.559-.217l2.091-1.875 7.462 7.09c.161.154.372.229.577.229.223 0 .44-.087.608-.26.317-.336.304-.87-.03-1.186l-7.369-6.996z"/>
    </g>
    <defs>
        <clipPath id="clip0">
            <path fill="#fff" d="M0 0H30V30H0z"/>
        </clipPath>
    </defs>
</svg>
