<svg xmlns="http://www.w3.org/2000/svg" width="30" height="30" fill="none" viewBox="0 0 30 30">
    <g clip-path="url(#clip0)">
        <path fill="#E2AB3F" d="M23.71 18.584c-.615-.64-1.356-.981-2.141-.981-.779 0-1.526.335-2.165.975l-2.001 1.994c-.165-.088-.33-.17-.488-.253-.228-.114-.443-.222-.627-.336-1.874-1.19-3.577-2.741-5.21-4.748-.792-1-1.324-1.843-1.71-2.698.519-.475 1-.969 1.469-1.443.177-.178.354-.361.532-.539 1.33-1.33 1.33-3.051 0-4.381L9.64 4.445c-.196-.196-.399-.399-.589-.601-.38-.393-.779-.798-1.19-1.178-.614-.608-1.349-.93-2.121-.93-.773 0-1.52.322-2.153.93l-.013.013L1.422 4.85C.612 5.66.149 6.649.048 7.795c-.152 1.849.392 3.57.81 4.698 1.026 2.767 2.558 5.331 4.844 8.08 2.773 3.31 6.11 5.926 9.921 7.768 1.457.69 3.4 1.507 5.572 1.646.133.007.273.013.4.013 1.462 0 2.69-.525 3.653-1.57.006-.013.019-.02.025-.032.33-.399.71-.76 1.108-1.146.272-.26.551-.532.823-.817.627-.652.956-1.412.956-2.19 0-.786-.335-1.539-.975-2.172l-3.476-3.489zm2.266 6.667c-.006 0-.006.007 0 0-.247.266-.5.507-.773.773-.411.392-.829.804-1.222 1.266-.64.684-1.393 1.007-2.38 1.007-.095 0-.197 0-.292-.006-1.88-.12-3.628-.855-4.938-1.482-3.584-1.735-6.73-4.198-9.346-7.32-2.159-2.602-3.603-5.008-4.559-7.591-.589-1.577-.804-2.805-.709-3.964.063-.74.348-1.355.874-1.88l2.159-2.16c.31-.29.64-.45.962-.45.4 0 .722.242.925.444l.019.02c.386.36.753.734 1.14 1.132.196.203.398.406.601.615l1.729 1.728c.67.671.67 1.292 0 1.963-.184.184-.361.367-.545.545-.532.544-1.038 1.05-1.59 1.544-.012.013-.025.02-.03.032-.545.545-.444 1.077-.33 1.438l.019.056c.45 1.09 1.083 2.115 2.045 3.337l.006.007c1.748 2.152 3.59 3.83 5.623 5.116.26.164.525.297.779.424.228.114.443.222.627.335.025.013.05.032.076.045.215.107.417.158.626.158.526 0 .855-.33.963-.437l2.165-2.165c.215-.216.557-.475.956-.475.393 0 .716.247.912.462l.013.013 3.488 3.489c.653.645.653 1.31.007 1.981zM16.212 7.136c1.66.279 3.166 1.064 4.37 2.267 1.202 1.203 1.981 2.71 2.266 4.369.07.418.43.709.842.709.05 0 .095-.006.146-.013.468-.076.779-.519.703-.988-.342-2.007-1.292-3.837-2.742-5.287-1.45-1.45-3.28-2.4-5.287-2.741-.469-.076-.906.234-.988.696-.082.463.222.912.69.988zM29.965 13.234c-.563-3.306-2.12-6.313-4.514-8.706C23.058 2.134 20.05.577 16.745.013c-.462-.082-.9.234-.982.697-.076.468.235.905.703.987 2.95.5 5.642 1.9 7.782 4.034 2.14 2.14 3.533 4.83 4.033 7.781.07.418.43.71.842.71.05 0 .095-.007.146-.013.462-.07.779-.513.696-.975z"/>
    </g>
    <defs>
        <clipPath id="clip0">
            <path fill="#fff" d="M0 0H30V30H0z"/>
        </clipPath>
    </defs>
</svg>
